<svg xmlns="http://www.w3.org/2000/svg" xmlns:xlink="http://www.w3.org/1999/xlink" width="500" zoomAndPan="magnify" viewBox="0 0 375 374.999991" height="500" preserveAspectRatio="xMidYMid meet" version="1.0"><defs><clipPath id="0639c29263"><path d="M 153.632812 105.941406 L 245.3125 105.941406 L 245.3125 197.621094 L 153.632812 197.621094 Z M 153.632812 105.941406 " clip-rule="nonzero"/></clipPath><clipPath id="f9d925d064"><path d="M 199.472656 105.941406 C 174.15625 105.941406 153.632812 126.464844 153.632812 151.78125 C 153.632812 177.097656 174.15625 197.621094 199.472656 197.621094 C 224.789062 197.621094 245.3125 177.097656 245.3125 151.78125 C 245.3125 126.464844 224.789062 105.941406 199.472656 105.941406 " clip-rule="nonzero"/></clipPath><clipPath id="93138e1dc9"><path d="M 170.460938 31.011719 L 228.484375 31.011719 L 228.484375 89.035156 L 170.460938 89.035156 Z M 170.460938 31.011719 " clip-rule="nonzero"/></clipPath><clipPath id="276540af8a"><path d="M 199.472656 31.011719 C 183.449219 31.011719 170.460938 44 170.460938 60.023438 C 170.460938 76.046875 183.449219 89.035156 199.472656 89.035156 C 215.496094 89.035156 228.484375 76.046875 228.484375 60.023438 C 228.484375 44 215.496094 31.011719 199.472656 31.011719 " clip-rule="nonzero"/></clipPath><clipPath id="cdc8ff02a6"><path d="M 34 5.875 L 340.617188 5.875 L 340.617188 368.867188 L 34 368.867188 Z M 34 5.875 " clip-rule="nonzero"/></clipPath></defs><g clip-path="url(#0639c29263)"><g clip-path="url(#f9d925d064)"><path fill="#4e944f" d="M 153.632812 105.941406 L 245.3125 105.941406 L 245.3125 197.621094 L 153.632812 197.621094 Z M 153.632812 105.941406 " fill-opacity="1" fill-rule="nonzero"/></g></g><g clip-path="url(#93138e1dc9)"><g clip-path="url(#276540af8a)"><path fill="#83bd75" d="M 170.460938 31.011719 L 228.484375 31.011719 L 228.484375 89.035156 L 170.460938 89.035156 Z M 170.460938 31.011719 " fill-opacity="1" fill-rule="nonzero"/></g></g><g clip-path="url(#cdc8ff02a6)"><path fill="#100f0d" d="M 101.0625 154.929688 L 101.0625 156.339844 C 101.0625 156.832031 101.089844 157.324219 101.136719 157.820312 L 101.136719 161.078125 C 101.1875 161.71875 101.234375 162.363281 101.285156 163.003906 L 101.285156 163.375 C 101.382812 164.164062 101.480469 164.976562 101.578125 165.816406 L 101.878906 168.1875 L 101.878906 168.484375 L 102.246094 170.558594 L 102.246094 170.851562 L 102.691406 173.074219 C 109.6875 207.242188 134.289062 235.125 167.304688 246.3125 L 168.042969 246.53125 L 169.15625 246.902344 L 170.859375 247.421875 L 170.933594 247.421875 C 173.644531 248.210938 176.410156 248.902344 179.222656 249.492188 C 169.601562 278.734375 142.699219 298.8125 111.945312 299.703125 L 111.945312 222.910156 C 111.945312 221.890625 111.113281 221.058594 110.09375 221.058594 C 109.070312 221.058594 108.242188 221.890625 108.242188 222.910156 L 108.242188 263.417969 L 84.707031 239.867188 C 84.09375 239.050781 82.929688 238.882812 82.117188 239.496094 C 81.296875 240.109375 81.132812 241.273438 81.746094 242.089844 C 81.851562 242.230469 81.972656 242.355469 82.117188 242.460938 L 108.242188 268.601562 L 108.242188 299.628906 C 68.132812 298.085938 36.859375 264.304688 38.402344 224.175781 C 39.75 188.949219 66.164062 159.765625 101.0625 154.929688 Z M 142.660156 77.476562 C 143.21875 77.066406 143.503906 76.382812 143.398438 75.695312 C 138.238281 44.839844 159.054688 15.636719 189.894531 10.46875 C 220.734375 5.304688 249.921875 26.128906 255.085938 56.988281 C 256.121094 63.183594 256.121094 69.503906 255.085938 75.695312 C 254.980469 76.382812 255.265625 77.066406 255.828125 77.476562 C 279.808594 95.242188 293.90625 123.371094 293.796875 153.226562 C 293.792969 156.964844 293.570312 160.699219 293.128906 164.410156 L 293.128906 164.558594 C 292.058594 173.566406 289.691406 182.371094 286.097656 190.699219 L 286.097656 190.921875 L 284.914062 193.585938 L 284.765625 193.957031 L 283.507812 196.476562 L 282.917969 197.585938 L 282.25 198.84375 C 270.871094 219.363281 252.3125 234.953125 230.144531 242.609375 L 229.257812 242.90625 C 220.269531 245.875 210.886719 247.476562 201.425781 247.644531 L 201.425781 222.617188 L 201.871094 222.316406 L 268.632812 155.523438 C 269.242188 154.707031 269.078125 153.546875 268.261719 152.933594 C 267.601562 152.4375 266.695312 152.4375 266.039062 152.933594 L 201.425781 217.578125 L 201.425781 56.8125 C 201.425781 55.792969 200.597656 54.960938 199.574219 54.960938 C 198.550781 54.960938 197.726562 55.792969 197.726562 56.8125 L 197.726562 175.222656 L 149.617188 127.460938 C 148.796875 126.84375 147.636719 127.011719 147.027344 127.828125 C 146.53125 128.488281 146.53125 129.390625 147.027344 130.050781 L 157.757812 140.859375 L 147.472656 151.15625 C 146.652344 151.769531 146.484375 152.929688 147.101562 153.746094 C 147.714844 154.5625 148.875 154.730469 149.691406 154.117188 C 149.832031 154.011719 149.953125 153.886719 150.0625 153.746094 L 160.347656 143.453125 L 197.355469 180.480469 L 197.355469 247.792969 C 192.363281 247.691406 187.390625 247.199219 182.476562 246.3125 L 182.257812 246.3125 C 178.808594 245.683594 175.398438 244.867188 172.042969 243.867188 L 171.894531 243.867188 L 170.414062 243.421875 L 168.636719 242.828125 C 135.371094 231.414062 111.152344 202.507812 105.726562 167.742188 L 105.726562 167.449219 L 105.429688 165.445312 L 105.429688 164.855469 L 105.207031 163.222656 L 105.207031 162.484375 L 105.058594 161.003906 L 105.058594 157.820312 C 105.058594 157.300781 104.984375 156.78125 104.984375 156.265625 L 104.984375 155.523438 C 104.984375 154.734375 104.984375 153.96875 104.984375 153.226562 L 104.984375 152.855469 C 104.921875 123.179688 118.890625 95.226562 142.660156 77.476562 Z M 336.945312 220.984375 C 336.902344 248.507812 316.949219 271.953125 289.796875 276.375 L 289.796875 261.640625 L 309.339844 242.089844 C 309.953125 241.273438 309.785156 240.109375 308.96875 239.496094 C 308.308594 239.003906 307.40625 239.003906 306.75 239.496094 L 289.871094 256.382812 L 289.871094 234.683594 C 289.871094 233.664062 289.042969 232.832031 288.023438 232.832031 C 287 232.832031 286.171875 233.664062 286.171875 234.683594 L 286.171875 276.820312 C 284.46875 276.96875 282.695312 277.042969 280.914062 277.042969 C 259.734375 277.007812 240.367188 265.074219 230.808594 246.160156 L 232.734375 245.496094 L 233.03125 245.496094 C 253.957031 237.820312 271.65625 223.25 283.210938 204.175781 L 283.285156 204.175781 L 285.136719 200.992188 L 285.726562 199.953125 L 286.394531 198.769531 L 287.652344 196.253906 L 288.984375 193.4375 L 288.984375 193.289062 C 292.675781 184.992188 295.195312 176.21875 296.457031 167.226562 C 320.417969 174.121094 336.925781 196.042969 336.945312 220.984375 Z M 108.613281 303.402344 L 108.613281 365.164062 L 86.257812 365.164062 C 85.238281 365.164062 84.410156 365.992188 84.410156 367.015625 C 84.410156 368.035156 85.238281 368.867188 86.257812 368.867188 L 138.808594 368.867188 C 139.832031 368.867188 140.660156 368.035156 140.660156 367.015625 C 140.660156 365.992188 139.832031 365.164062 138.808594 365.164062 L 112.3125 365.164062 L 112.3125 303.402344 C 128.355469 303.085938 143.886719 297.664062 156.648438 287.929688 C 169.167969 278.382812 178.46875 265.226562 183.292969 250.234375 C 187.96875 250.996094 192.691406 251.417969 197.429688 251.496094 L 197.429688 365.164062 L 166.933594 365.164062 C 165.914062 365.164062 165.082031 365.992188 165.082031 367.015625 C 165.082031 368.035156 165.914062 368.867188 166.933594 368.867188 L 245.910156 368.867188 C 246.929688 368.867188 247.761719 368.035156 247.761719 367.015625 C 247.761719 365.992188 246.929688 365.164062 245.910156 365.164062 L 201.054688 365.164062 L 201.054688 251.421875 C 209.933594 251.257812 218.746094 249.890625 227.253906 247.347656 C 237.351562 267.777344 258.140625 280.714844 280.914062 280.746094 C 282.695312 280.746094 284.46875 280.671875 286.171875 280.523438 L 286.171875 365.164062 L 266.1875 365.164062 C 265.164062 365.164062 264.335938 365.992188 264.335938 367.015625 C 264.335938 368.035156 265.164062 368.867188 266.1875 368.867188 L 303.34375 368.867188 C 304.363281 368.867188 305.191406 368.035156 305.191406 367.015625 C 305.191406 365.992188 304.363281 365.164062 303.34375 365.164062 L 289.796875 365.164062 L 289.796875 280.152344 C 322.449219 275.183594 344.898438 244.671875 339.929688 212.003906 C 336.394531 188.738281 319.554688 169.707031 296.902344 163.375 C 297.25 160 297.421875 156.617188 297.421875 153.226562 C 297.472656 137.671875 293.792969 122.335938 286.691406 108.5 C 279.988281 95.472656 270.484375 84.09375 258.863281 75.179688 C 263.796875 42.214844 241.09375 11.488281 208.144531 6.546875 C 175.199219 1.605469 144.488281 24.324219 139.550781 57.289062 C 138.660156 63.21875 138.660156 69.25 139.550781 75.179688 C 127.925781 84.09375 118.421875 95.472656 111.722656 108.5 C 104.953125 121.71875 101.308594 136.308594 101.0625 151.15625 C 59.191406 156.308594 29.425781 194.445312 34.578125 236.335938 C 39.207031 273.972656 70.71875 302.523438 108.613281 303.402344 " fill-opacity="1" fill-rule="nonzero"/></g></svg>